# AST/ASF file generated using VICON BodyLanguage
# -----------------------------------------------
:version 1.10
:name VICON
:units
  mass 1.0
  length 0.45
  angle deg
:documentation
   .ast/.asf automatically generated from VICON data using
   VICON BodyBuilder and BodyLanguage model FoxedUp or BRILLIANT.MOD
:root
   order TX TY TZ RX RY RZ
   axis XYZ
   position 0 0 0  
   orientation 0 0 0 
:bonedata
  begin
     id 1 
     name lhipjoint
     direction 0.521452 -0.77106 0.36545 
     length 2.0933 
     axis 0 0 0  XYZ
  end
  begin
     id 2 
     name lfemur
     direction 0.34202 -0.939693 0  
     length 6.83441  
     axis 0 0 20  XYZ
    dof rx ry rz
    limits (-160.0 20.0)
           (-70.0 70.0)
           (-60.0 70.0)
  end
  begin
     id 3 
     name ltibia
     direction 0.34202 -0.939693 0   
     length 7.28749   
     axis 0 0 20   XYZ
    dof rx
    limits (-10.0 170.0)
  end
  begin
     id 4 
     name lfoot
     direction 0.100608 -0.276418 0.955757   
     length 1.52195   
     axis -90 7.62852e-016 20   XYZ
    dof rx rz
    limits (-45.0 90.0)
           (-70.0 20.0)
  end
  begin
     id 5 
     name ltoes
     direction 1.53558e-011 -4.21907e-011 1   
     length 0.770459   
     axis -90 7.62852e-016 20   XYZ
    dof rx
    limits (-90.0 20.0)
  end
  begin
     id 6 
     name rhipjoint
     direction -0.488071 -0.788702 0.373812   
     length 2.04648  
     axis 0 0 0  XYZ 
  end
  begin
     id 7 
     name rfemur
     direction -0.34202 -0.939693 0   
     length 6.92583   
     axis 0 0 -20   XYZ
    dof rx ry rz
    limits (-160.0 20.0)
           (-70.0 70.0)
           (-70.0 60.0)
  end
  begin
     id 8 
     name rtibia
     direction -0.34202 -0.939693 0   
     length 7.41043   
     axis 0 0 -20   XYZ
    dof rx
    limits (-10.0 170.0)
 end
 begin
     id 9 
     name rfoot
     direction -0.0784433 -0.215521 0.973343   
     length 1.67708  
     axis -90 -7.62852e-016 -20   XYZ
    dof rx rz
    limits (-45.0 90.0)
           (-20.0 70.0)
  end
  begin
     id 10 
     name rtoes
     direction -1.53551e-011 -4.21842e-011 1   
     length 0.849787   
     axis -90 -7.62852e-016 -20   XYZ
    dof rx
    limits (-90.0 20.0)
  end
  begin
     id 11 
     name lowerback
     direction -0.0122332 0.997575 -0.0685192   
     length 1.98724   
     axis 0 0 0   XYZ
    dof rx ry rz
    limits (-20.0 45.0)
           (-30.0 30.0)
           (-30.0 30.0)
  end
  begin
     id 12 
     name upperback
     direction 0.0182347 0.999724 -0.0148421   
     length 1.99029   
     axis 0 0 0   XYZ
    dof rx ry rz
    limits (-20.0 45.0)
           (-30.0 30.0)
           (-30.0 30.0)
  end
  begin
     id 13 
     name thorax
     direction 0.0242908 0.99956 0.0170184   
     length 1.99573   
     axis 0 0 0   XYZ
    dof rx ry rz
    limits (-20.0 45.0)
           (-30.0 30.0)
           (-30.0 30.0)
  end
  begin
     id 14 
     name lowerneck
     direction 0.0654488 0.985533 0.156338   
     length 1.4285   
     axis 0 0 0   XYZ
    dof rx ry rz
    limits (-20.0 45.0)
           (-30.0 30.0)
           (-30.0 30.0)
  end
  begin
     id 15 
     name upperneck
     direction -0.02953 0.998556 -0.0448842   
     length 1.44709   
     axis 0 0 0   XYZ
    dof rx ry rz
    limits (-20.0 45.0)
           (-30.0 30.0)
           (-30.0 30.0)
  end
  begin
     id 16
     name head
     direction -0.0155588 0.999386 -0.0314063  
     length 1.44689  
     axis 0 0 0   XYZ
    dof rx ry rz
    limits (-20.0 45.0)
           (-30.0 30.0)
           (-30.0 30.0)
  end
  begin
     id 17 
     name lclavicle
     direction 0.968229 0.236071 -0.0824755  
     length 3.60593  
     axis 0 0 0   XYZ
    dof ry rz
    limits (-20.0 10.0)
           (0.0 20.0)
  end
  begin
     id 18 
     name lhumerus
     direction 1 -4.48968e-011 7.8138e-029   
     length 5.06035   
     axis 180 -30 -90   XYZ
    dof rx ry rz
    limits (-60.0 90.0)
           (-90.0 90.0)
           (-90.0 90.0)
  end
  begin
     id 19
     name lradius
     direction 1 -4.48967e-011 9.02887e-028   
     length 3.1478   
     axis 180 -30 -90   XYZ
    dof rx
    limits (-10.0 170.0)
  end
  begin
     id 20
     name lwrist
     direction 1 -4.48961e-011 7.20928e-028   
     length 1.5739   
     axis -5.52449e-016 90 90   XYZ
    dof ry
    limits (-180.0 0.0)
 end
  begin
     id 21 
     name lhand
     direction 1 -4.48972e-011 1.44186e-027   
     length 0.606747   
     axis -9.20027e-016 90 90   XYZ
    dof rx rz
    limits (-90.0 90.0)
           (-45.0 45.0)
  end
  begin
     id 22 
     name lfingers
     direction 1 -4.48943e-011 2.88371e-027   
     length 0.489175   
     axis -1.84005e-015 90 90   XYZ
    dof rx
    limits (0.0 90.0)
  end
  begin
     id 23
     name lthumb
     direction 0.707107 -6.34917e-011 0.707107   
     length 0.70236   
     axis -90 45 2.85299e-015   XYZ
    dof rx rz
    limits (-45.0 45.0)
           (-45.0 45.0)
  end
  begin
     id 24 
     name rclavicle
     direction -0.978165 0.207816 0.0022268   
     length 3.35425  
     axis 0 0 0   XYZ 
    dof ry rz
    limits (-10.0 20.0)
           (-20.0 0.0)
  end
  begin
     id 25 
     name rhumerus
     direction -1 -4.48964e-011 -4.02159e-027  
     length 5.12273   
     axis 180 30 90   XYZ
    dof rx ry rz
    limits (-90.0 60.0)
           (-90.0 90.0)
           (-90.0 90.0)
  end
  begin
     id 26 
     name rradius
     direction -1 -4.48966e-011 1.62746e-027   
     length 3.422   
     axis 180 30 90   XYZ
    dof rx
    limits (-10.0 170.0)
  end
  begin
     id 27 
     name rwrist
     direction -1 -4.4896e-011 7.20928e-028   
     length 1.711   
     axis -5.52449e-016 -90 -90   XYZ
    dof ry
    limits (-180.0 0.0)
  end
  begin
     id 28
     name rhand
     direction -1 -4.48979e-011 1.44186e-027   
     length 0.704599   
     axis -9.20027e-016 -90 -90   XYZ
    dof rx rz
    limits (-90.0 90.0)
           (-45.0 45.0)
  end
  begin
     id 29
     name rfingers
     direction -1 -4.48962e-011 2.88371e-027   
     length 0.568066   
     axis -1.84005e-015 -90 -90   XYZ
    dof rx
    limits (0.0 90.0)
  end
  begin
     id 30
     name rthumb
     direction -0.707107 -6.34949e-011 0.707107   
     length 0.815633   
     axis -90 -45 -2.85299e-015   XYZ
    dof rx rz
    limits (-45.0 45.0)
           (-45.0 45.0)
  end
:hierarchy
  begin
    root lhipjoint rhipjoint lowerback
    lhipjoint lfemur
    lfemur ltibia
    ltibia lfoot
    lfoot ltoes
    rhipjoint rfemur
    rfemur rtibia
    rtibia rfoot
    rfoot rtoes
    lowerback upperback
    upperback thorax
    thorax lowerneck lclavicle rclavicle
    lowerneck upperneck
    upperneck head
    lclavicle lhumerus
    lhumerus lradius
    lradius lwrist
    lwrist lhand lthumb
    lhand lfingers
    rclavicle rhumerus
    rhumerus rradius
    rradius rwrist
    rwrist rhand rthumb
    rhand rfingers
  end

#!OML:ASF E:\id_vita\Project 1\Capture day 1\Session 1\Male1.ASF
:FULLY-SPECIFIED
:DEGREES
114
root 21.3003 15.9034 0.701121 146.13 -80.3181 -141.979
lowerback -0.601839 0.310173 3.07874
upperback 2.21531 0.296599 1.15422
thorax 2.62327 0.186691 -0.531405
lowerneck -1.07553 -5.60236 -0.425538
upperneck -10.9108 -7.96975 -1.57166
head -3.37842 -3.99556 -0.221175
rclavicle 3.02153e-014 -3.97569e-016
rhumerus -22.3804 -1.22629 -84.0603
rradius 46.1906
rwrist -4.4475
rhand -24.3172 36.1422
rfingers 7.12502
rthumb 2.17099 6.1735
lclavicle 3.02153e-014 -3.97569e-016
lhumerus -42.1229 35.1725 61.2037
lradius 1.48526
lwrist -24.4636
lhand -11.9856 53.3539
lfingers 7.12502
lthumb 14.0709 82.8576
rfemur 19.8224 5.64066 29.1239
rtibia -9.22361e-014
rfoot -13.401 0.549292
rtoes -11.8542
lfemur -36.1166 -2.9853 -11.3455
ltibia 26.5261
lfoot -12.2853 -0.00036425
ltoes 47.894
115
root 21.1193 15.8826 0.702427 146.62 -80.2944 -142.448
lowerback -0.766425 0.334903 2.98645
upperback 2.22257 0.327017 1.10437
thorax 2.72396 0.202343 -0.529051
lowerneck -1.43807 -5.7869 0.045366
upperneck -10.6696 -8.25016 -2.08248
head -3.2794 -4.14197 -0.471835
rclavicle -1.31198e-014 -1.59028e-015
rhumerus -22.2814 -1.70846 -84.1327
rradius 45.8888
rwrist -4.36047
rhand -24.4712 36.2656
rfingers 7.12502
rthumb 2.02228 6.29542
lclavicle -1.31198e-014 -1.59028e-015
lhumerus -42.0114 35.0219 61.238
lradius 1.11474
lwrist -24.4872
lhand -12.0043 53.5039
lfingers 7.12502
lthumb 14.0528 83.0088
rfemur 20.5093 5.64126 28.9894
rtibia 3.18055e-015
rfoot -12.7671 1.06505
rtoes -12.781
lfemur -35.8964 -2.2053 -11.8326
ltibia 27.5166
lfoot -11.112 -1.43352
ltoes 48.5656
116
root 20.93 15.875 0.707661 147.692 -80.1448 -143.581
lowerback -1.00266 0.34849 2.84244
upperback 2.3082 0.335865 1.12219
thorax 2.9445 0.206327 -0.427986
lowerneck -1.77109 -5.5264 -0.510667
upperneck -9.66931 -7.81782 -1.87726
head -2.83334 -3.91571 -0.35513
rclavicle 1.87852e-014 1.19271e-014
rhumerus -22.2947 -1.79102 -84.1738
rradius 45.8357
rwrist -4.40704
rhand -24.5992 36.2025
rfingers 7.12502
rthumb 1.8987 6.23122
lclavicle 1.87852e-014 1.19271e-014
lhumerus -42.071 35.1264 61.2793
lradius 0.980708
lwrist -24.5337
lhand -12.2444 53.3812
lfingers 7.12502
lthumb 13.8215 82.902
rfemur 21.2452 5.81065 28.7767
rtibia -9.54166e-015
rfoot -11.9766 1.92136
rtoes -12.7194
lfemur -35.6518 -1.48556 -12.3167
ltibia 28.4609
lfoot -9.40291 -2.19317
ltoes 49.1579
117
root 20.7414 15.8808 0.716142 148.322 -79.9924 -144.275
lowerback -1.16426 0.348504 2.81277
upperback 2.39141 0.326927 1.13315
thorax 3.12114 0.203184 -0.398968
lowerneck -1.4768 -5.41399 -1.18005
upperneck -9.8763 -7.63675 -1.3171
head -2.90052 -3.81477 -0.0586906
rclavicle 1.02871e-014 -7.55382e-015
rhumerus -22.3091 -1.93359 -84.2535
rradius 45.7562
rwrist -4.35127
rhand -24.72 35.9124
rfingers 7.12502
rthumb 1.78197 5.94011
lclavicle 1.02871e-014 -7.55382e-015
lhumerus -42.2174 35.2388 61.3285
lradius 1.27666
lwrist -24.579
lhand -12.2082 53.6268
lfingers 7.12502
lthumb 13.8564 83.1453
rfemur 21.9027 5.94609 28.6124
rtibia 1.90833e-014
rfoot -10.9184 2.94613
rtoes -12.5939
lfemur -35.5572 -0.9499 -12.676
ltibia 29.3056
lfoot -7.86152 -2.32132
ltoes 48.2811
118
root 20.5489 15.89 0.723058 149.409 -79.9202 -145.379
lowerback -1.30777 0.315842 2.65155
upperback 2.39912 0.283869 1.11291
thorax 3.20776 0.179481 -0.330416
lowerneck -1.30368 -5.19652 -1.48382
upperneck -9.93106 -7.321 -0.98738
head -2.923 -3.65397 0.0955319
rclavicle -2.57923e-014 3.57812e-015
rhumerus -22.285 -2.19349 -84.3739
rradius 45.2751
rwrist -4.16718
rhand -24.9249 35.7893
rfingers 7.12502
rthumb 1.58409 5.8154
lclavicle -2.57923e-014 3.57812e-015
lhumerus -42.3571 35.3765 61.2979
lradius 1.43073
lwrist -24.6586
lhand -12.0499 53.9724
lfingers 7.12502
lthumb 14.009 83.4804
rfemur 22.5305 6.06246 28.329
rtibia -1.59028e-014
rfoot -9.62713 3.98469
rtoes -12.229
lfemur -35.51 -0.488332 -13.0817
ltibia 29.9957
lfoot -6.94124 -2.58346
ltoes 47.0609
119
root 20.3471 15.8997 0.729223 151.882 -80.0029 -147.884
lowerback -1.54676 0.241506 2.1739
upperback 2.33079 0.198853 1.03809
thorax 3.26721 0.128242 -0.142775
lowerneck -1.06319 -5.31096 -0.988538
upperneck -10.5759 -7.55536 -1.45192
head -3.23078 -3.77239 -0.106895
rclavicle 8.99501e-015 -1.94809e-014
rhumerus -22.5443 -2.39363 -84.4728
rradius 44.7129
rwrist -4.14169
rhand -24.7674 35.934
rfingers 7.12502
rthumb 1.73619 5.9613
lclavicle 8.99501e-015 -1.94809e-014
lhumerus -42.4496 35.5806 61.1748
lradius 1.06021
lwrist -24.8449
lhand -11.9344 53.9095
lfingers 7.12502
lthumb 14.1202 83.4097
rfemur 23.1853 6.17128 27.718
rtibia 9.54166e-015
rfoot -8.075 5.0809
rtoes -10.9727
lfemur -35.271 -0.241606 -13.7006
ltibia 30.4703
lfoot -6.60555 -2.72816
ltoes 45.8071
